<svg xmlns="http://www.w3.org/2000/svg" width="24" height="23.988" viewBox="0 0 24 23.988">
  <path id="arrow.backward.circle" d="M11.994,23.988A12.073,12.073,0,0,0,24,11.994,12.083,12.083,0,0,0,11.983,0,12.06,12.06,0,0,0,0,11.994,12.07,12.07,0,0,0,11.994,23.988Zm0-2.39a9.6,9.6,0,1,1,9.6-9.6A9.56,9.56,0,0,1,11.994,21.6Zm-5.986-9.6a1.126,1.126,0,0,0,.383.835L10.324,16.7a1,1,0,0,0,.708.29.927.927,0,0,0,.94-.963.952.952,0,0,0-.3-.708l-1.415-1.346-1.3-1.044,2.378.1h5.661a1.045,1.045,0,0,0,0-2.088H11.333l-2.366.116,1.3-1.056,1.4-1.346a1,1,0,0,0,.3-.708.917.917,0,0,0-.94-.951.99.99,0,0,0-.708.278L6.391,11.171A1.08,1.08,0,0,0,6.009,11.994Z" fill="#093143"/>
</svg>
