<svg xmlns="http://www.w3.org/2000/svg" xmlns:xlink="http://www.w3.org/1999/xlink" width="46.963" height="59.374" viewBox="0 0 46.963 59.374">
  <defs>
    <clipPath id="clip-path">
      <rect id="Rectangle_20659" data-name="Rectangle 20659" width="46.963" height="59.374" fill="#fff"/>
    </clipPath>
  </defs>
  <g id="Group_50536" data-name="Group 50536" transform="translate(0)">
    <g id="Group_50536-2" data-name="Group 50536" transform="translate(0)" clip-path="url(#clip-path)">
      <path id="Path_43231" data-name="Path 43231" d="M47.387,0H3.763a1.4,1.4,0,0,0,0,2.808H24.587V42.592a1.4,1.4,0,0,0,2.809,0V2.808H47.387a1.4,1.4,0,0,0,0-2.808" transform="translate(-1.829)" fill="#fff"/>
      <path id="Path_43232" data-name="Path 43232" d="M148.54,43.371a6.849,6.849,0,0,1-6.738-6.939V26.414a1.4,1.4,0,1,1,2.808,0V36.431a3.935,3.935,0,1,0,7.86,0V26.414a1.4,1.4,0,1,1,2.808,0V36.431a6.849,6.849,0,0,1-6.738,6.939" transform="translate(-109.937 -19.39)" fill="#fff"/>
      <path id="Path_43233" data-name="Path 43233" d="M153.874,132.442a1.4,1.4,0,0,1-1.4-1.4V121.021a3.935,3.935,0,1,0-7.86,0v10.017a1.4,1.4,0,1,1-2.808,0V121.021a6.741,6.741,0,1,1,13.477,0v10.017a1.4,1.4,0,0,1-1.4,1.4" transform="translate(-109.937 -88.446)" fill="#fff"/>
      <path id="Path_43234" data-name="Path 43234" d="M13.081,43.019h0a1.4,1.4,0,0,1-1.4-1.406l.013-15a1.4,1.4,0,0,1,2.537-.829L22.7,37.358l.072-10.952a1.4,1.4,0,0,1,1.4-1.4h.009a1.4,1.4,0,0,1,1.4,1.413l-.1,15.2a1.4,1.4,0,0,1-2.537.82L14.495,30.907l-.009,10.709a1.4,1.4,0,0,1-1.4,1.4" transform="translate(-9.053 -19.391)" fill="#fff"/>
      <path id="Path_43235" data-name="Path 43235" d="M14.955,130.941a1.118,1.118,0,0,1-.946-.669,9.143,9.143,0,1,0-2.923,1.18,4.131,4.131,0,0,0,3.575,2.633c.05,0,.1.007.149.007a1.579,1.579,0,0,0,.145-3.15m-11.8-8.461A6.017,6.017,0,1,1,9.174,128.5a6.024,6.024,0,0,1-6.017-6.017" transform="translate(0 -87.845)" fill="#fff"/>
      <path id="Path_43236" data-name="Path 43236" d="M90.593,225.273a.723.723,0,0,0-.564.715v2.165a.636.636,0,0,1-.636.636H79.508a2.443,2.443,0,1,0-4.156,0H59.241a.416.416,0,0,1-.416-.416v-7.2a.713.713,0,0,0-1.425,0v7.974a1.063,1.063,0,0,0,1.062,1.062H90.414a1.04,1.04,0,0,0,1.04-1.04v-3.2a.713.713,0,0,0-.861-.7m-13.171,3.516a1.123,1.123,0,1,1,1.123-1.123,1.123,1.123,0,0,1-1.123,1.123" transform="translate(-44.501 -170.924)" fill="#fff"/>
      <path id="Path_43237" data-name="Path 43237" d="M11.547,223.021H6.395v-4.533a.749.749,0,1,0-1.5,0v8.2H4.419a.749.749,0,0,0,0,1.5h7.128a2.582,2.582,0,1,0,0-5.163m0,3.665H6.395v-2.167h5.152a1.084,1.084,0,1,1,0,2.167" transform="translate(-2.845 -168.81)" fill="#fff"/>
      <path id="Path_43238" data-name="Path 43238" d="M149.671,222.482a.77.77,0,1,0-.77-.77.77.77,0,0,0,.77.77" transform="translate(-115.441 -171.293)" fill="#fff"/>
      <path id="Path_43239" data-name="Path 43239" d="M202.858,222.482a.77.77,0,1,0-.77-.77.77.77,0,0,0,.77.77" transform="translate(-156.676 -171.293)" fill="#fff"/>
      <path id="Path_43240" data-name="Path 43240" d="M138.482,222.482a.77.77,0,1,0-.77-.77.77.77,0,0,0,.77.77" transform="translate(-106.766 -171.293)" fill="#fff"/>
    </g>
  </g>
</svg>
