<svg id="icon" xmlns="http://www.w3.org/2000/svg" width="68.843" height="74.499" viewBox="0 0 68.843 74.499">
  <g id="Group_50501" data-name="Group 50501" transform="translate(0 0)">
    <path id="Path_69" data-name="Path 69" d="M11.062,13.581c10.174-1.388,9.6,8.814,12.3,15.106a1.946,1.946,0,0,0,1.912,1.4c7.123.648,15.817-2.724,19.454,5.372,2.043,4.55,3.438,9.933,5.222,14.632a7.057,7.057,0,0,1-9.519,7.658c-5.3-1.943-4.866-9.161-7.138-13.337a2.2,2.2,0,0,0-1.068-1l-18.5-.115A8.423,8.423,0,0,1,6.663,36.7c-.829-3.278-2.878-13.058-2.58-16.032a8.48,8.48,0,0,1,6.979-7.083m.411,3.3c-3.78.6-4.278,3.84-3.811,7.021A113.817,113.817,0,0,0,9.97,36.077a5.129,5.129,0,0,0,4.158,3.908c5.469.714,12.371-.5,17.986.009,5.215.473,5.642,8.549,7.386,12.473a3.716,3.716,0,0,0,7.138-1.97c-1.866-4.373-3.057-9.526-5.02-13.8a5.15,5.15,0,0,0-4.154-3.289c-4.054-.484-8.951.418-13.012-.022-7.786-.84-3.469-18.006-12.979-16.5" transform="translate(4.908 16.288)" fill="#fff"/>
    <path id="Path_70" data-name="Path 70" d="M9,46.119l24.914.63a1.728,1.728,0,0,1,1.66,2.478c-.82,1.751-3.283.849-4.753.825-5.06-.091-10.065-.252-15.1-.416-2.655-.086-6.124.321-8.653-.241-1.293-.287-1.3-2.131-1.53-3.228C3.4,36.1,2.052,25.834,0,15.746c.1-1.954,2.069-2.6,3.168-.926C5.343,25.188,7.085,35.687,9,46.119" transform="translate(0 16.782)" fill="#fff"/>
    <path id="Path_72" data-name="Path 72" d="M23.323,13.7a9.948,9.948,0,1,1-9.946-9.95,9.948,9.948,0,0,1,9.946,9.95m-3.327,0a6.611,6.611,0,1,0-6.612,6.61A6.611,6.611,0,0,0,20,13.692" transform="translate(4.149 4.536)" fill="#fff"/>
    <path id="Path_74" data-name="Path 74" d="M45.67,13.266A13.265,13.265,0,1,1,32.406,0,13.263,13.263,0,0,1,45.67,13.266m-3.356,0a9.906,9.906,0,1,0-9.906,9.906,9.905,9.905,0,0,0,9.906-9.906" transform="translate(23.172 0)" fill="#fff"/>
    <path id="Path_75" data-name="Path 75" d="M23.355,14.682C21.447,12.6,25.767,10.7,26.143,9.429c.455-1.534-.811-6.2,1.066-6.791A1.689,1.689,0,0,1,29.49,3.686a62.756,62.756,0,0,1-.038,7.191,43.594,43.594,0,0,1-4.017,4.05,1.7,1.7,0,0,1-2.08-.245" transform="translate(27.689 3.07)" fill="#fff"/>
  </g>
</svg>
