<svg xmlns="http://www.w3.org/2000/svg" width="156" height="41.69" viewBox="0 0 156 41.69">
  <g id="logo" transform="translate(0)">
    <path id="Path_43201" data-name="Path 43201" d="M136.863,38.948V14.961a5.4,5.4,0,0,0-1.415-4.062,5.714,5.714,0,0,0-4.184-1.53,3.939,3.939,0,0,0-.428,0v24a5.4,5.4,0,0,0,1.415,4.054,5.729,5.729,0,0,0,4.169,1.53,4.374,4.374,0,0,0,.444,0Zm.543-35.4a3.557,3.557,0,1,0-1.036,2.533,3.564,3.564,0,0,0,1.036-2.533ZM119.347,27.322v6.05a5.4,5.4,0,0,0,1.415,4.054,5.775,5.775,0,0,0,4.176,1.53,4.3,4.3,0,0,0,.444,0V26.06c0-5.545-1.53-9.278-4.207-12.185a15.8,15.8,0,0,0-11.718-4.7c-9.179,0-15.588,6.746-15.588,15.527,0,8.628,5.9,14.387,13.569,14.387,5.913,0,9.454-3.511,9.454-7.649a8.483,8.483,0,0,0-1.53-4.75c-.849,4.429-3.3,6.884-7.243,6.884-4.215,0-7.924-3.19-7.924-9.018s3.717-9.638,9.278-9.638a9.263,9.263,0,0,1,6.723,2.639c1.989,1.973,3.151,4.995,3.151,9.775Zm47.086,3.7a.237.237,0,0,1-.184-.115c-4.329-5.63-12.238-16.017-14-18.281-1.82-2.379-3.251-3.159-5.132-3.159a4.383,4.383,0,0,0-3.289,1.339,5.8,5.8,0,0,0-1.3,3.985V33.372a5.354,5.354,0,0,0,1.415,4.054,5.584,5.584,0,0,0,4.077,1.53,2.371,2.371,0,0,0,.337,0V17.646c0-.153.069-.237.176-.237s.122,0,.176.122c2.539,3.3,12.169,15.894,14.02,18.265s3.235,3.167,5.109,3.167a4.413,4.413,0,0,0,3.3-1.323,5.836,5.836,0,0,0,1.3-3.985V15.068A5.438,5.438,0,0,0,171.023,11a5.6,5.6,0,0,0-4.084-1.53,2.593,2.593,0,0,0-.337,0V30.794c0,.153-.069.229-.168.229ZM71.527,33.25c-.237,0-.375-.076-.375-.237a.444.444,0,0,1,.207-.3c1.851-1.53,14.112-11.389,15.978-12.927,3.251-2.616,3.932-3.893,3.932-5.752a3.916,3.916,0,0,0-1.361-2.952C88.928,10.249,87.459,9.8,85.08,9.8H64.23v.329a5.607,5.607,0,0,0,.765,3.06c.849,1.209,2.44,1.9,4.589,1.9H83.291c.237,0,.375.076.375.2s-.061.176-.214.291C81.508,17.156,70.2,26.289,67.389,28.538c-3.258,2.616-3.909,3.916-3.909,5.767a3.886,3.886,0,0,0,1.361,2.945c.987.841,2.455,1.3,4.842,1.3H91.521v-.229a4.9,4.9,0,0,0-1.369-3.733c-1.063-.979-2.44-1.339-5.033-1.339Z" transform="translate(-16.459 0)" fill="#fff"/>
    <path id="Path_43202" data-name="Path 43202" d="M35.327,16.3a5.72,5.72,0,0,0-6.486-5.813c-8.1.62-9.179,9.836-3.878,10.425,5.515.612,7.488-5.217,7.6-5.545h0c0,.4.3,8.414-7.878,8.414A6.364,6.364,0,0,1,18.247,17.3c0-4.459,4.337-8.9,10.464-9.14,3.427-.13,5.691.681,7.458,2.455,3.618,3.61,2.547,10.379-.344,13.714-4.635,5.308-11.152,6.654-17.218,3.932s-8.245-10.6-4.589-17.195A17.23,17.23,0,0,1,28.772,3.23c10.708,0,16.162,7.6,15.175,16.529-.765,6.838-4.9,11.795-6.83,13.89-8.49,9.179-20.927,11.03-28.76,6.241a13.049,13.049,0,0,1-6.264-12.7A13.049,13.049,0,0,0,7.7,36.579c6.4,4.367,17.118,4.964,24.859-3.549-7.779,5.813-16.873,5.729-23.077,1.683C3.784,31,2.215,23.591,5.007,16.264c-1.4,6.532.818,12.59,5.79,15.749C18.492,36.931,29.713,34.1,36.8,26.177a14.693,14.693,0,0,0,3.725-9.66C40.46,10.971,36.6,6,28.772,6c-8.008,0-13.5,6.188-13.5,11.336,0,5.714,3.924,8.972,9.041,8.972S35.327,23.117,35.327,16.3Z" transform="translate(-2.006 -0.759)" fill="#fff"/>
  </g>
</svg>
